<svg aria-hidden="true" style="width:0;height:0;position:absolute;overflow:hidden" xmlns="http://www.w3.org/2000/svg"><defs><symbol id="icon-messenger" viewBox="0 0 32 32"><path d="M0 15.52C0 6.6 6.987 0 16 0s16 6.6 16 15.52-6.987 15.52-16 15.52a17.47 17.47 0 0 1-4.627-.613 1.285 1.285 0 0 0-.862.07l.008-.003-3.187 1.4a1.28 1.28 0 0 1-1.8-1.131v-.002l-.093-2.853a1.293 1.293 0 0 0-.426-.906l-.001-.001C1.927 24.21-.003 20.193-.003 15.724l.001-.214v.011zm11.093-2.92L6.4 20.067c-.467.707.427 1.52 1.093 1l5.053-3.827a.94.94 0 0 1 1.16 0l3.733 2.8c1.12.84 2.72.533 3.467-.64l4.693-7.467c.467-.707-.427-1.507-1.093-1l-5.053 3.827a.921.921 0 0 1-1.147 0l-3.733-2.8a2.4 2.4 0 0 0-3.475.63l-.006.01z"/></symbol><symbol id="icon-arrow_top" viewBox="0 0 24 24"><path d="M7.406 15.422 6 14.016l6-6 6 6-1.406 1.406L12 10.828z"/></symbol><symbol id="icon-arrow_bottom" viewBox="0 0 24 24"><path d="M7.406 8.578 12 13.172l4.594-4.594L18 9.984l-6 6-6-6z"/></symbol><symbol id="icon-arrow_right" viewBox="0 0 24 24"><path d="M8.578 16.594 13.172 12 8.578 7.406 9.984 6l6 6-6 6z"/></symbol><symbol id="icon-arrow_left" viewBox="0 0 24 24"><path d="M15.422 16.594 14.016 18l-6-6 6-6 1.406 1.406L10.828 12z"/></symbol><symbol id="icon-instagram" viewBox="0 0 20 20"><path d="M17 1H3c-1.1 0-2 .9-2 2v14c0 1.101.9 2 2 2h14c1.1 0 2-.899 2-2V3c0-1.1-.9-2-2-2zM9.984 15.523a5.539 5.539 0 0 0 5.538-5.539c0-.338-.043-.664-.103-.984H17v7.216a.69.69 0 0 1-.693.69H3.693a.69.69 0 0 1-.693-.69V9h1.549c-.061.32-.104.646-.104.984a5.54 5.54 0 0 0 5.539 5.539zM6.523 9.984c0-1.912 1.55-3.461 3.462-3.461a3.461 3.461 0 1 1 0 6.923 3.461 3.461 0 0 1-3.462-3.462zM16.307 6h-1.615A.694.694 0 0 1 14 5.308V3.691c0-.382.31-.691.691-.691h1.615c.384 0 .694.309.694.691v1.616c0 .381-.31.693-.693.693z"/></symbol><symbol id="icon-menu" viewBox="0 0 20 20"><path d="M0 3h20v2H0V3zm0 6h20v2H0V9zm0 6h20v2H0v-2z"/></symbol><symbol id="icon-close" viewBox="0 0 32 32"><path d="M31.708 25.708 22 16l9.708-9.708a1 1 0 0 0 0-1.414L27.122.292a1 1 0 0 0-1.414-.001L16 9.999 6.292.291a.998.998 0 0 0-1.414.001L.292 4.878a1 1 0 0 0 0 1.414L10 16 .292 25.708a.999.999 0 0 0 0 1.414l4.586 4.586a1 1 0 0 0 1.414 0L16 22l9.708 9.708a1 1 0 0 0 1.414 0l4.586-4.586a.999.999 0 0 0 0-1.414z"/></symbol><symbol id="icon-phone" viewBox="0 0 32 32"><path d="M22 20c-2 2-2 4-4 4s-4-2-6-4-4-4-4-6 2-2 4-4-4-8-6-8-6 6-6 6c0 4 4.109 12.109 8 16s12 8 16 8c0 0 6-4 6-6s-6-8-8-6z"/></symbol><symbol id="icon-location" viewBox="0 0 32 32"><path d="M16 0C10.477 0 6 4.477 6 10c0 10 10 22 10 22s10-12 10-22c0-5.523-4.477-10-10-10zm0 16.125a6.125 6.125 0 1 1 0-12.25 6.125 6.125 0 0 1 0 12.25zM12.125 10a3.875 3.875 0 1 1 7.75 0 3.875 3.875 0 0 1-7.75 0z"/></symbol></defs></svg>