<svg aria-hidden="true" style="width:0;height:0;position:absolute;overflow:hidden" xmlns="http://www.w3.org/2000/svg"><defs><symbol id="icon-messenger" viewBox="0 0 32 32"><path d="M0 15.52C0 6.6 6.987 0 16 0s16 6.6 16 15.52-6.987 15.52-16 15.52a17.47 17.47 0 0 1-4.627-.613 1.285 1.285 0 0 0-.862.07l.008-.003-3.187 1.4a1.28 1.28 0 0 1-1.8-1.131v-.002l-.093-2.853a1.293 1.293 0 0 0-.426-.906l-.001-.001C1.927 24.21-.003 20.193-.003 15.724l.001-.214v.011zm11.093-2.92L6.4 20.067c-.467.707.427 1.52 1.093 1l5.053-3.827a.94.94 0 0 1 1.16 0l3.733 2.8c1.12.84 2.72.533 3.467-.64l4.693-7.467c.467-.707-.427-1.507-1.093-1l-5.053 3.827a.921.921 0 0 1-1.147 0l-3.733-2.8a2.4 2.4 0 0 0-3.475.63l-.006.01z"/></symbol><symbol id="icon-arrow_top" viewBox="0 0 24 24"><path d="M7.406 15.422 6 14.016l6-6 6 6-1.406 1.406L12 10.828z"/></symbol><symbol id="icon-arrow_bottom" viewBox="0 0 24 24"><path d="M7.406 8.578 12 13.172l4.594-4.594L18 9.984l-6 6-6-6z"/></symbol><symbol id="icon-arrow_right" viewBox="0 0 24 24"><path d="M8.578 16.594 13.172 12 8.578 7.406 9.984 6l6 6-6 6z"/></symbol><symbol id="icon-arrow_left" viewBox="0 0 24 24"><path d="M15.422 16.594 14.016 18l-6-6 6-6 1.406 1.406L10.828 12z"/></symbol><symbol id="icon-instagram" viewBox="0 0 20 20"><path d="M17 1H3c-1.1 0-2 .9-2 2v14c0 1.101.9 2 2 2h14c1.1 0 2-.899 2-2V3c0-1.1-.9-2-2-2zM9.984 15.523a5.539 5.539 0 0 0 5.538-5.539c0-.338-.043-.664-.103-.984H17v7.216a.69.69 0 0 1-.693.69H3.693a.69.69 0 0 1-.693-.69V9h1.549c-.061.32-.104.646-.104.984a5.54 5.54 0 0 0 5.539 5.539zM6.523 9.984c0-1.912 1.55-3.461 3.462-3.461a3.461 3.461 0 1 1 0 6.923 3.461 3.461 0 0 1-3.462-3.462zM16.307 6h-1.615A.694.694 0 0 1 14 5.308V3.691c0-.382.31-.691.691-.691h1.615c.384 0 .694.309.694.691v1.616c0 .381-.31.693-.693.693z"/></symbol><symbol id="icon-menu" viewBox="0 0 20 20"><path d="M0 3h20v2H0V3zm0 6h20v2H0V9zm0 6h20v2H0v-2z"/></symbol><symbol id="icon-close" viewBox="0 0 32 32"><path d="M31.708 25.708 22 16l9.708-9.708a1 1 0 0 0 0-1.414L27.122.292a1 1 0 0 0-1.414-.001L16 9.999 6.292.291a.998.998 0 0 0-1.414.001L.292 4.878a1 1 0 0 0 0 1.414L10 16 .292 25.708a.999.999 0 0 0 0 1.414l4.586 4.586a1 1 0 0 0 1.414 0L16 22l9.708 9.708a1 1 0 0 0 1.414 0l4.586-4.586a.999.999 0 0 0 0-1.414z"/></symbol><symbol id="icon-phone" viewBox="0 0 32 32"><path d="M22 20c-2 2-2 4-4 4s-4-2-6-4-4-4-4-6 2-2 4-4-4-8-6-8-6 6-6 6c0 4 4.109 12.109 8 16s12 8 16 8c0 0 6-4 6-6s-6-8-8-6z"/></symbol><symbol id="icon-location" viewBox="0 0 32 32"><path d="M16 0C10.477 0 6 4.477 6 10c0 10 10 22 10 22s10-12 10-22c0-5.523-4.477-10-10-10zm0 16.125a6.125 6.125 0 1 1 0-12.25 6.125 6.125 0 0 1 0 12.25zM12.125 10a3.875 3.875 0 1 1 7.75 0 3.875 3.875 0 0 1-7.75 0z"/></symbol><symbol id="icon-clock" viewBox="0 0 32 32"><path d="M7.729 11.022a11.468 11.468 0 0 1 5.559-2.81 3.5 3.5 0 1 1 4.424 0 11.472 11.472 0 0 1 5.559 2.81L24.5 9.793l-.707-.707.707-.707 2.121 2.121-.707.707-.707-.707-1.229 1.229A11.46 11.46 0 0 1 27 19.5C27 25.851 21.851 31 15.5 31S4 25.851 4 19.5c0-2.996 1.146-5.724 3.022-7.771L5.793 10.5l-.707.707-.707-.707L6.5 8.379l.707.707-.707.707 1.229 1.229zm8.418 7.124 3.119-3.119a.507.507 0 0 1 .71-.002c.19.19.194.513-.002.71l-3.119 3.119a1.5 1.5 0 0 1-2.001 2.001l-1.119 1.119a.507.507 0 0 1-.71.002.508.508 0 0 1 .002-.71l1.119-1.119a1.5 1.5 0 0 1 2.001-2.001zM16 7.95a2.5 2.5 0 1 0-1 0V6h-1V5h3v1h-1v1.95zM8.016 19.998h2.496a.5.5 0 0 0 .49-.5c0-.276-.215-.5-.49-.5H8.017A7.5 7.5 0 0 1 15 12.017v2.493a.5.5 0 0 0 .5.49c.276 0 .5-.215.5-.49v-2.493a7.5 7.5 0 0 1 6.983 6.981h-2.495a.5.5 0 0 0-.49.5c0 .276.215.5.49.5h2.496A7.501 7.501 0 0 1 16 26.984v-2.498a.5.5 0 0 0-.5-.49c-.276 0-.5.215-.5.49v2.498a7.501 7.501 0 0 1-6.984-6.986zM15.5 30C21.299 30 26 25.299 26 19.5S21.299 9 15.5 9 5 13.701 5 19.5 9.701 30 15.5 30zm0-2a8.5 8.5 0 1 0-.001-17.001A8.5 8.5 0 0 0 15.5 28zm0-8a.5.5 0 1 0 0-1 .5.5 0 0 0 0 1z"/></symbol><symbol id="icon-bike" viewBox="0 0 24 24"><path d="M18.984 20.484q1.453 0 2.484-1.008t1.031-2.461-1.031-2.484-2.484-1.031-2.461 1.031-1.008 2.484 1.008 2.461 2.461 1.008zm0-8.484q2.109 0 3.563 1.453T24 17.016t-1.453 3.539-3.563 1.43-3.539-1.43-1.43-3.539 1.43-3.563T18.984 12zm-8.203-1.5 2.203 2.297v6.188h-1.969v-4.969l-3.234-2.813q-.563-.375-.563-1.406 0-.844.563-1.406l2.813-2.813q.375-.563 1.406-.563.891 0 1.594.563L15.516 7.5q1.5 1.5 3.563 1.5v2.016q-2.953 0-5.063-2.109l-.797-.797zm-5.765 9.984q1.453 0 2.461-1.008t1.008-2.461-1.008-2.484T5.016 13.5t-2.484 1.031-1.031 2.484 1.031 2.461 2.484 1.008zm0-8.484q2.109 0 3.539 1.453t1.43 3.563-1.43 3.539-3.539 1.43-3.563-1.43T0 17.016t1.453-3.563T5.016 12zm10.5-6.516q-.797 0-1.406-.586t-.609-1.383.609-1.406 1.406-.609 1.383.609.586 1.406-.586 1.383-1.383.586z"/></symbol></defs></svg>