<svg aria-hidden="true" style="position: absolute; width: 0; height: 0; overflow: hidden;" version="1.1" xmlns="http://www.w3.org/2000/svg" xmlns:xlink="http://www.w3.org/1999/xlink">
<defs>
<symbol id="icon-messenger" viewBox="0 0 32 32">
<path d="M0 15.52c0-8.92 6.987-15.52 16-15.52s16 6.6 16 15.52-6.987 15.52-16 15.52c-1.613 0-3.173-0.213-4.627-0.613-0.1-0.028-0.214-0.044-0.333-0.044-0.188 0-0.367 0.041-0.529 0.114l0.008-0.003-3.187 1.4c-0.153 0.070-0.332 0.111-0.521 0.111-0.694 0-1.259-0.553-1.279-1.242l-0-0.002-0.093-2.853c-0.016-0.361-0.177-0.681-0.426-0.906l-0.001-0.001c-3.085-2.791-5.015-6.808-5.015-11.277 0-0.071 0.001-0.143 0.001-0.214l-0 0.011zM11.093 12.6l-4.693 7.467c-0.467 0.707 0.427 1.52 1.093 1l5.053-3.827c0.347-0.267 0.8-0.267 1.16 0l3.733 2.8c1.12 0.84 2.72 0.533 3.467-0.64l4.693-7.467c0.467-0.707-0.427-1.507-1.093-1l-5.053 3.827c-0.333 0.267-0.8 0.267-1.147 0l-3.733-2.8c-0.397-0.303-0.901-0.485-1.447-0.485-0.853 0-1.602 0.445-2.028 1.115l-0.006 0.010z"></path>
</symbol>
<symbol id="icon-arrow_top" viewBox="0 0 24 24">
<path d="M7.406 15.422l-1.406-1.406 6-6 6 6-1.406 1.406-4.594-4.594z"></path>
</symbol>
<symbol id="icon-arrow_bottom" viewBox="0 0 24 24">
<path d="M7.406 8.578l4.594 4.594 4.594-4.594 1.406 1.406-6 6-6-6z"></path>
</symbol>
<symbol id="icon-arrow_right" viewBox="0 0 24 24">
<path d="M8.578 16.594l4.594-4.594-4.594-4.594 1.406-1.406 6 6-6 6z"></path>
</symbol>
<symbol id="icon-arrow_left" viewBox="0 0 24 24">
<path d="M15.422 16.594l-1.406 1.406-6-6 6-6 1.406 1.406-4.594 4.594z"></path>
</symbol>
<symbol id="icon-instagram" viewBox="0 0 20 20">
<path d="M17 1h-14c-1.1 0-2 0.9-2 2v14c0 1.101 0.9 2 2 2h14c1.1 0 2-0.899 2-2v-14c0-1.1-0.9-2-2-2zM9.984 15.523c3.059 0 5.538-2.481 5.538-5.539 0-0.338-0.043-0.664-0.103-0.984h1.581v7.216c0 0.382-0.31 0.69-0.693 0.69h-12.614c-0.383 0-0.693-0.308-0.693-0.69v-7.216h1.549c-0.061 0.32-0.104 0.646-0.104 0.984 0 3.059 2.481 5.539 5.539 5.539zM6.523 9.984c0-1.912 1.55-3.461 3.462-3.461s3.462 1.549 3.462 3.461-1.551 3.462-3.462 3.462c-1.913 0-3.462-1.55-3.462-3.462zM16.307 6h-1.615c-0.382 0-0.692-0.312-0.692-0.692v-1.617c0-0.382 0.31-0.691 0.691-0.691h1.615c0.384 0 0.694 0.309 0.694 0.691v1.616c0 0.381-0.31 0.693-0.693 0.693z"></path>
</symbol>
<symbol id="icon-menu" viewBox="0 0 20 20">
<path d="M0 3h20v2h-20v-2zM0 9h20v2h-20v-2zM0 15h20v2h-20v-2z"></path>
</symbol>
<symbol id="icon-close" viewBox="0 0 32 32">
<path d="M31.708 25.708c-0-0-0-0-0-0l-9.708-9.708 9.708-9.708c0-0 0-0 0-0 0.105-0.105 0.18-0.227 0.229-0.357 0.133-0.356 0.057-0.771-0.229-1.057l-4.586-4.586c-0.286-0.286-0.702-0.361-1.057-0.229-0.13 0.048-0.252 0.124-0.357 0.228 0 0-0 0-0 0l-9.708 9.708-9.708-9.708c-0-0-0-0-0-0-0.105-0.104-0.227-0.18-0.357-0.228-0.356-0.133-0.771-0.057-1.057 0.229l-4.586 4.586c-0.286 0.286-0.361 0.702-0.229 1.057 0.049 0.13 0.124 0.252 0.229 0.357 0 0 0 0 0 0l9.708 9.708-9.708 9.708c-0 0-0 0-0 0-0.104 0.105-0.18 0.227-0.229 0.357-0.133 0.355-0.057 0.771 0.229 1.057l4.586 4.586c0.286 0.286 0.702 0.361 1.057 0.229 0.13-0.049 0.252-0.124 0.357-0.229 0-0 0-0 0-0l9.708-9.708 9.708 9.708c0 0 0 0 0 0 0.105 0.105 0.227 0.18 0.357 0.229 0.356 0.133 0.771 0.057 1.057-0.229l4.586-4.586c0.286-0.286 0.362-0.702 0.229-1.057-0.049-0.13-0.124-0.252-0.229-0.357z"></path>
</symbol>
<symbol id="icon-phone" viewBox="0 0 32 32">
<path d="M22 20c-2 2-2 4-4 4s-4-2-6-4-4-4-4-6 2-2 4-4-4-8-6-8-6 6-6 6c0 4 4.109 12.109 8 16s12 8 16 8c0 0 6-4 6-6s-6-8-8-6z"></path>
</symbol>
<symbol id="icon-location" viewBox="0 0 32 32">
<path d="M16 0c-5.523 0-10 4.477-10 10 0 10 10 22 10 22s10-12 10-22c0-5.523-4.477-10-10-10zM16 16.125c-3.383 0-6.125-2.742-6.125-6.125s2.742-6.125 6.125-6.125 6.125 2.742 6.125 6.125-2.742 6.125-6.125 6.125zM12.125 10c0-2.14 1.735-3.875 3.875-3.875s3.875 1.735 3.875 3.875c0 2.14-1.735 3.875-3.875 3.875s-3.875-1.735-3.875-3.875z"></path>
</symbol>
<symbol id="icon-clock" viewBox="0 0 32 32">
<path d="M7.729 11.022c1.53-1.403 3.44-2.397 5.559-2.81-0.786-0.642-1.288-1.619-1.288-2.713 0-1.933 1.567-3.5 3.5-3.5s3.5 1.567 3.5 3.5c0 1.094-0.502 2.071-1.288 2.713v0c2.118 0.413 4.029 1.407 5.559 2.81v0l1.229-1.229-0.707-0.707 0.707-0.707 2.121 2.121-0.707 0.707-0.707-0.707-1.229 1.229c1.877 2.047 3.022 4.775 3.022 7.771 0 6.351-5.149 11.5-11.5 11.5s-11.5-5.149-11.5-11.5c0-2.996 1.146-5.724 3.022-7.771l-1.229-1.229-0.707 0.707-0.707-0.707 2.121-2.121 0.707 0.707-0.707 0.707 1.229 1.229zM16.147 18.146l3.119-3.119c0.191-0.191 0.514-0.198 0.71-0.002 0.19 0.19 0.194 0.513-0.002 0.71l-3.119 3.119c0.094 0.196 0.146 0.415 0.146 0.647 0 0.828-0.672 1.5-1.5 1.5-0.232 0-0.451-0.052-0.647-0.146l-1.119 1.119c-0.191 0.191-0.514 0.198-0.71 0.002-0.19-0.19-0.194-0.513 0.002-0.71l1.119-1.119c-0.094-0.196-0.146-0.415-0.146-0.647 0-0.828 0.672-1.5 1.5-1.5 0.232 0 0.451 0.052 0.647 0.146v0 0zM16 7.95c1.141-0.232 2-1.24 2-2.45 0-1.381-1.119-2.5-2.5-2.5s-2.5 1.119-2.5 2.5c0 1.209 0.859 2.218 2 2.45v-1.95h-1v-1h3v1h-1v1.95zM8.016 19.998h2.496c0.271 0 0.49-0.232 0.49-0.5 0-0.276-0.215-0.5-0.49-0.5h-2.495c0.247-3.743 3.24-6.735 6.983-6.981v2.493c0 0.271 0.232 0.49 0.5 0.49 0.276 0 0.5-0.215 0.5-0.49v-2.493c3.743 0.246 6.736 3.239 6.983 6.981h-2.495c-0.271 0-0.49 0.232-0.49 0.5 0 0.276 0.215 0.5 0.49 0.5h2.496c-0.245 3.745-3.239 6.739-6.984 6.986v-2.498c0-0.271-0.232-0.49-0.5-0.49-0.276 0-0.5 0.215-0.5 0.49v2.498c-3.745-0.246-6.738-3.241-6.984-6.986zM15.5 30c5.799 0 10.5-4.701 10.5-10.5s-4.701-10.5-10.5-10.5c-5.799 0-10.5 4.701-10.5 10.5s4.701 10.5 10.5 10.5v0zM15.5 28c4.694 0 8.5-3.806 8.5-8.5s-3.806-8.5-8.5-8.5c-4.694 0-8.5 3.806-8.5 8.5s3.806 8.5 8.5 8.5v0zM15.5 20c0.276 0 0.5-0.224 0.5-0.5s-0.224-0.5-0.5-0.5c-0.276 0-0.5 0.224-0.5 0.5s0.224 0.5 0.5 0.5v0z"></path>
</symbol>
<symbol id="icon-bike" viewBox="0 0 24 24">
<path d="M18.984 20.484q1.453 0 2.484-1.008t1.031-2.461-1.031-2.484-2.484-1.031-2.461 1.031-1.008 2.484 1.008 2.461 2.461 1.008zM18.984 12q2.109 0 3.563 1.453t1.453 3.563-1.453 3.539-3.563 1.43-3.539-1.43-1.43-3.539 1.43-3.563 3.539-1.453zM10.781 10.5l2.203 2.297v6.188h-1.969v-4.969l-3.234-2.813q-0.563-0.375-0.563-1.406 0-0.844 0.563-1.406l2.813-2.813q0.375-0.563 1.406-0.563 0.891 0 1.594 0.563l1.922 1.922q1.5 1.5 3.563 1.5v2.016q-2.953 0-5.063-2.109l-0.797-0.797zM5.016 20.484q1.453 0 2.461-1.008t1.008-2.461-1.008-2.484-2.461-1.031-2.484 1.031-1.031 2.484 1.031 2.461 2.484 1.008zM5.016 12q2.109 0 3.539 1.453t1.43 3.563-1.43 3.539-3.539 1.43-3.563-1.43-1.453-3.539 1.453-3.563 3.563-1.453zM15.516 5.484q-0.797 0-1.406-0.586t-0.609-1.383 0.609-1.406 1.406-0.609 1.383 0.609 0.586 1.406-0.586 1.383-1.383 0.586z"></path>
</symbol>
<symbol id="icon-diamonds" viewBox="0 0 32 32">
<path d="M16 0l-10 16 10 16 10-16z"></path>
</symbol>
</defs>
</svg>
